<svg xmlns="http://www.w3.org/2000/svg" xmlns:xlink="http://www.w3.org/1999/xlink" width="500" zoomAndPan="magnify" viewBox="0 0 375 374.999991" height="500" preserveAspectRatio="xMidYMid meet" version="1.0"><defs><clipPath id="4f969f606a"><path d="M 29.097656 142 L 167 142 L 167 287.097656 L 29.097656 287.097656 Z M 29.097656 142 " clip-rule="nonzero"/></clipPath><clipPath id="a45e9c4a0e"><path d="M 193 141 L 330.597656 141 L 330.597656 287 L 193 287 Z M 193 141 " clip-rule="nonzero"/></clipPath><clipPath id="a58ae52a86"><path d="M 38 10.347656 L 330.597656 10.347656 L 330.597656 116 L 38 116 Z M 38 10.347656 " clip-rule="nonzero"/></clipPath><clipPath id="c3fc8dfc26"><path d="M 40 293 L 342 293 L 342 357 L 40 357 Z M 40 293 " clip-rule="nonzero"/></clipPath><clipPath id="87a5849635"><path d="M 45.554688 277.796875 L 345.8125 305.140625 L 338.945312 380.578125 L 38.6875 353.234375 Z M 45.554688 277.796875 " clip-rule="nonzero"/></clipPath><clipPath id="4a280025ea"><path d="M 45.554688 277.796875 L 345.8125 305.140625 L 338.945312 380.578125 L 38.6875 353.234375 Z M 45.554688 277.796875 " clip-rule="nonzero"/></clipPath></defs><g clip-path="url(#4f969f606a)"><path fill="#037bfd" d="M 40.714844 195.597656 C 52.640625 222.761719 70.242188 244.691406 94.90625 261.136719 C 120.949219 278.5 137.054688 282.371094 166.515625 287.160156 C 158.941406 270.28125 147.289062 251.257812 136.167969 236.410156 C 120.378906 215.335938 102.929688 198.28125 85 182.386719 C 76.324219 189.605469 83.558594 201.582031 91.003906 206.894531 C 102.191406 217.945312 113.167969 229.957031 123.765625 243.710938 C 128.535156 249.902344 132.953125 256.578125 137.445312 262.992188 C 139.421875 265.820312 139.800781 268.796875 135.585938 266.980469 C 125.382812 262.578125 109.78125 255.652344 101.054688 249.039062 C 88.546875 239.5625 70.886719 222.515625 63.15625 208.914062 C 55.394531 195.265625 49.519531 180.101562 45.300781 163.613281 C 43.109375 155.066406 37.246094 146.378906 29.238281 142.382812 C 30.996094 163.042969 32.003906 175.753906 40.714844 195.601562 Z M 40.714844 195.597656 " fill-opacity="1" fill-rule="evenodd"/></g><g clip-path="url(#a45e9c4a0e)"><path fill="#037bfd" d="M 223.621094 235.660156 C 212.503906 250.507812 200.847656 269.53125 193.273438 286.410156 C 222.730469 281.621094 238.84375 277.75 264.886719 260.386719 C 289.546875 243.941406 307.152344 222.011719 319.078125 194.847656 C 327.785156 175 328.792969 162.289062 330.554688 141.628906 C 322.546875 145.625 316.679688 154.308594 314.492188 162.859375 C 310.273438 179.347656 304.398438 194.511719 296.636719 208.160156 C 288.902344 221.765625 271.242188 238.808594 258.734375 248.285156 C 250.007812 254.898438 234.402344 261.824219 224.207031 266.226562 C 219.992188 268.042969 220.371094 265.0625 222.34375 262.238281 C 226.832031 255.824219 231.253906 249.148438 236.023438 242.957031 C 246.625 229.203125 257.605469 217.195312 268.789062 206.140625 C 276.230469 200.832031 283.46875 188.851562 274.789062 181.632812 C 256.859375 197.53125 239.40625 214.585938 223.621094 235.65625 Z M 223.621094 235.660156 " fill-opacity="1" fill-rule="evenodd"/></g><path fill="#ff4d6d" d="M 197.273438 251.402344 C 208.585938 232.652344 225.023438 207.9375 240.363281 192.265625 C 266.820312 165.230469 295.332031 142.484375 327.050781 124.371094 C 284.195312 127.496094 243.746094 141.226562 205.277344 163.628906 C 181.597656 178.351562 158.042969 193.402344 137.011719 215.390625 C 145.789062 226.234375 153.679688 237.980469 160.996094 250.554688 C 170.246094 266.445312 188.917969 267.96875 197.269531 251.402344 Z M 197.273438 251.402344 " fill-opacity="1" fill-rule="evenodd"/><path fill="#ff4d6d" d="M 133.007812 209.144531 C 145.085938 197.25 157.933594 185.804688 173.019531 175.636719 C 130.683594 145.648438 82.503906 129.082031 30.988281 124.125 C 67.777344 145.113281 102.171875 172.414062 133.007812 209.140625 Z M 133.007812 209.144531 " fill-opacity="1" fill-rule="evenodd"/><path fill="#037bfd" d="M 151.761719 136.160156 C 151.761719 151.746094 164.398438 164.382812 179.988281 164.382812 C 195.574219 164.382812 208.210938 151.746094 208.210938 136.160156 C 208.210938 120.570312 195.574219 107.933594 179.988281 107.933594 C 164.398438 107.933594 151.761719 120.570312 151.761719 136.160156 Z M 151.761719 136.160156 " fill-opacity="1" fill-rule="evenodd"/><g clip-path="url(#a58ae52a86)"><path fill="#037bfd" d="M 111.753906 115.871094 C 153.714844 89.808594 210.308594 92.113281 252.785156 115.621094 C 252.785156 103.285156 252.785156 90.949219 252.785156 78.613281 C 278.625 70.945312 304.460938 63.273438 330.304688 55.605469 C 281.042969 40.519531 231.78125 25.433594 182.519531 10.347656 C 134.679688 25.347656 86.832031 40.351562 38.988281 55.355469 C 61.746094 62.609375 84.5 69.859375 107.257812 77.113281 C 132.605469 62.605469 158.589844 60.910156 183.773438 63.859375 C 168.023438 65.683594 151.816406 67.796875 136.660156 73.074219 C 128.246094 76.003906 119.734375 81.023438 111.761719 85.113281 C 111.761719 95.367188 111.761719 105.617188 111.761719 115.871094 Z M 111.753906 115.871094 " fill-opacity="1" fill-rule="evenodd"/></g><g clip-path="url(#c3fc8dfc26)"><g clip-path="url(#87a5849635)"><g clip-path="url(#4a280025ea)"><path fill="#ff4d6d" d="M 48.285156 353.875 L 48.464844 353.832031 C 50.242188 353.230469 52.542969 352.160156 55.367188 350.625 C 68.5 342.792969 78.203125 337.253906 84.476562 334 L 95.769531 328.492188 C 105.222656 324.195312 114.195312 320.761719 122.683594 318.191406 C 131.914062 315.308594 141.597656 313.042969 151.734375 311.390625 C 159.753906 310.050781 167.824219 309.167969 175.945312 308.746094 C 174.828125 308.65625 180.003906 308.535156 191.472656 308.382812 C 217.128906 309.097656 240.1875 313.046875 260.660156 320.230469 C 268.582031 322.898438 277.199219 326.46875 286.511719 330.949219 L 299.421875 337.746094 L 327.277344 354.523438 C 328.683594 355.316406 330.015625 355.949219 331.277344 356.414062 L 331.878906 356.324219 C 334.699219 354.15625 337.535156 350.71875 340.390625 346.015625 C 341.691406 344.683594 341.621094 343.359375 340.175781 342.035156 C 332.273438 334.195312 320.585938 326.6875 305.109375 319.519531 C 289.128906 311.902344 271.097656 305.722656 251.023438 300.980469 C 231.398438 296.328125 211.5625 293.886719 191.515625 293.65625 C 151.800781 293.367188 113.859375 300.988281 77.703125 316.515625 C 58.9375 325.050781 46.554688 332.589844 40.542969 339.132812 C 40.152344 338.9375 40.394531 339.875 41.269531 341.941406 L 48.285156 353.875 " fill-opacity="1" fill-rule="nonzero"/></g></g></g></svg>